<mxfile host="Electron" modified="2024-01-31T07:37:57.947Z" agent="Mozilla/5.0 (Windows NT 10.0; Win64; x64) AppleWebKit/537.36 (KHTML, like Gecko) draw.io/23.0.2 Chrome/120.0.6099.109 Electron/28.1.0 Safari/537.36" etag="412tNIM0tbzZV9gGYVIo" version="23.0.2" type="device">
  <diagram name="第 1 页" id="KQCiJwFa0hS5rHlSRLIT">
    <mxGraphModel dx="1378" dy="1065" grid="1" gridSize="10" guides="1" tooltips="1" connect="1" arrows="1" fold="1" page="1" pageScale="1" pageWidth="827" pageHeight="1169" math="1" shadow="0">
      <root>
        <mxCell id="0" />
        <mxCell id="1" parent="0" />
        <mxCell id="DSus3vwQZFm3lOOcsBD6-126" value="" style="group;flipH=0;" vertex="1" connectable="0" parent="1">
          <mxGeometry x="27" y="80" width="352" height="300" as="geometry" />
        </mxCell>
        <mxCell id="DSus3vwQZFm3lOOcsBD6-1" value="A" style="ellipse;whiteSpace=wrap;html=1;fontFamily=Times New Roman;fontSize=19;" vertex="1" parent="DSus3vwQZFm3lOOcsBD6-126">
          <mxGeometry x="185" width="40" height="40" as="geometry" />
        </mxCell>
        <mxCell id="DSus3vwQZFm3lOOcsBD6-2" value="B" style="ellipse;whiteSpace=wrap;html=1;fontFamily=Times New Roman;fontSize=19;" vertex="1" parent="DSus3vwQZFm3lOOcsBD6-126">
          <mxGeometry x="115" y="70" width="40" height="40" as="geometry" />
        </mxCell>
        <mxCell id="DSus3vwQZFm3lOOcsBD6-6" style="rounded=0;orthogonalLoop=1;jettySize=auto;html=1;exitX=0;exitY=1;exitDx=0;exitDy=0;endArrow=none;endFill=0;" edge="1" parent="DSus3vwQZFm3lOOcsBD6-126" source="DSus3vwQZFm3lOOcsBD6-1" target="DSus3vwQZFm3lOOcsBD6-2">
          <mxGeometry relative="1" as="geometry" />
        </mxCell>
        <mxCell id="DSus3vwQZFm3lOOcsBD6-43" value="" style="group" vertex="1" connectable="0" parent="DSus3vwQZFm3lOOcsBD6-126">
          <mxGeometry y="150" width="105" height="120" as="geometry" />
        </mxCell>
        <mxCell id="DSus3vwQZFm3lOOcsBD6-36" value="&lt;font style=&quot;font-size: 19px;&quot; face=&quot;Times New Roman&quot;&gt;h-1&lt;/font&gt;" style="text;html=1;strokeColor=none;fillColor=none;align=center;verticalAlign=middle;whiteSpace=wrap;rounded=0;fontSize=11;fontFamily=Helvetica;fontColor=default;" vertex="1" parent="DSus3vwQZFm3lOOcsBD6-43">
          <mxGeometry y="25" width="60" height="30" as="geometry" />
        </mxCell>
        <mxCell id="DSus3vwQZFm3lOOcsBD6-23" value="&lt;font style=&quot;font-size: 23px;&quot;&gt;$$ \Bigg \{$$&lt;/font&gt;" style="text;html=1;strokeColor=none;fillColor=none;align=center;verticalAlign=middle;whiteSpace=wrap;rounded=0;fontSize=11;fontFamily=Helvetica;fontColor=default;" vertex="1" parent="DSus3vwQZFm3lOOcsBD6-43">
          <mxGeometry x="24" y="25" width="60" height="30" as="geometry" />
        </mxCell>
        <mxCell id="DSus3vwQZFm3lOOcsBD6-33" value="" style="group" vertex="1" connectable="0" parent="DSus3vwQZFm3lOOcsBD6-43">
          <mxGeometry x="65" width="40" height="120" as="geometry" />
        </mxCell>
        <mxCell id="DSus3vwQZFm3lOOcsBD6-12" value="&lt;font style=&quot;font-size: 12px;&quot;&gt;$$B_L$$&lt;/font&gt;" style="rounded=0;whiteSpace=wrap;html=1;direction=west;" vertex="1" parent="DSus3vwQZFm3lOOcsBD6-33">
          <mxGeometry width="40" height="80" as="geometry" />
        </mxCell>
        <mxCell id="DSus3vwQZFm3lOOcsBD6-55" value="" style="rounded=0;whiteSpace=wrap;html=1;fontFamily=Helvetica;fontSize=11;fontColor=default;fillStyle=auto;fillColor=#525252;gradientColor=none;container=0;" vertex="1" parent="DSus3vwQZFm3lOOcsBD6-43">
          <mxGeometry x="65" y="80" width="40" height="40" as="geometry" />
        </mxCell>
        <mxCell id="DSus3vwQZFm3lOOcsBD6-13" style="edgeStyle=none;shape=connector;rounded=0;orthogonalLoop=1;jettySize=auto;html=1;exitX=0;exitY=1;exitDx=0;exitDy=0;entryX=0.5;entryY=1;entryDx=0;entryDy=0;labelBackgroundColor=default;strokeColor=default;align=center;verticalAlign=middle;fontFamily=Helvetica;fontSize=11;fontColor=default;endArrow=none;endFill=0;" edge="1" parent="DSus3vwQZFm3lOOcsBD6-126" source="DSus3vwQZFm3lOOcsBD6-2" target="DSus3vwQZFm3lOOcsBD6-12">
          <mxGeometry relative="1" as="geometry" />
        </mxCell>
        <mxCell id="DSus3vwQZFm3lOOcsBD6-49" value="" style="group" vertex="1" connectable="0" parent="DSus3vwQZFm3lOOcsBD6-126">
          <mxGeometry x="98" y="150" width="105" height="120" as="geometry" />
        </mxCell>
        <mxCell id="DSus3vwQZFm3lOOcsBD6-50" value="&lt;font style=&quot;font-size: 19px;&quot; face=&quot;Times New Roman&quot;&gt;h-1&lt;/font&gt;" style="text;html=1;strokeColor=none;fillColor=none;align=center;verticalAlign=middle;whiteSpace=wrap;rounded=0;fontSize=11;fontFamily=Helvetica;fontColor=default;" vertex="1" parent="DSus3vwQZFm3lOOcsBD6-49">
          <mxGeometry y="25" width="60" height="30" as="geometry" />
        </mxCell>
        <mxCell id="DSus3vwQZFm3lOOcsBD6-51" value="&lt;font style=&quot;font-size: 23px;&quot;&gt;$$ \Bigg \{$$&lt;/font&gt;" style="text;html=1;strokeColor=none;fillColor=none;align=center;verticalAlign=middle;whiteSpace=wrap;rounded=0;fontSize=11;fontFamily=Helvetica;fontColor=default;" vertex="1" parent="DSus3vwQZFm3lOOcsBD6-49">
          <mxGeometry x="24" y="25" width="60" height="30" as="geometry" />
        </mxCell>
        <mxCell id="DSus3vwQZFm3lOOcsBD6-52" value="" style="group" vertex="1" connectable="0" parent="DSus3vwQZFm3lOOcsBD6-49">
          <mxGeometry x="65" width="40" height="120" as="geometry" />
        </mxCell>
        <mxCell id="DSus3vwQZFm3lOOcsBD6-53" value="&lt;font style=&quot;font-size: 12px;&quot;&gt;$$B_R$$&lt;/font&gt;" style="rounded=0;whiteSpace=wrap;html=1;direction=west;" vertex="1" parent="DSus3vwQZFm3lOOcsBD6-52">
          <mxGeometry width="40" height="80" as="geometry" />
        </mxCell>
        <mxCell id="DSus3vwQZFm3lOOcsBD6-54" style="edgeStyle=none;shape=connector;rounded=0;orthogonalLoop=1;jettySize=auto;html=1;exitX=1;exitY=1;exitDx=0;exitDy=0;entryX=0.5;entryY=1;entryDx=0;entryDy=0;labelBackgroundColor=default;strokeColor=default;align=center;verticalAlign=middle;fontFamily=Helvetica;fontSize=11;fontColor=default;endArrow=none;endFill=0;" edge="1" parent="DSus3vwQZFm3lOOcsBD6-126" source="DSus3vwQZFm3lOOcsBD6-2" target="DSus3vwQZFm3lOOcsBD6-53">
          <mxGeometry relative="1" as="geometry" />
        </mxCell>
        <mxCell id="DSus3vwQZFm3lOOcsBD6-67" value="" style="group" vertex="1" connectable="0" parent="DSus3vwQZFm3lOOcsBD6-126">
          <mxGeometry x="245" y="70" width="107" height="80" as="geometry" />
        </mxCell>
        <mxCell id="DSus3vwQZFm3lOOcsBD6-57" value="&lt;font style=&quot;font-size: 19px;&quot; face=&quot;Times New Roman&quot;&gt;h-1&lt;/font&gt;" style="text;html=1;strokeColor=none;fillColor=none;align=center;verticalAlign=middle;whiteSpace=wrap;rounded=0;fontSize=11;fontFamily=Helvetica;fontColor=default;" vertex="1" parent="DSus3vwQZFm3lOOcsBD6-67">
          <mxGeometry x="47" y="24" width="60" height="30" as="geometry" />
        </mxCell>
        <mxCell id="DSus3vwQZFm3lOOcsBD6-58" value="" style="group" vertex="1" connectable="0" parent="DSus3vwQZFm3lOOcsBD6-67">
          <mxGeometry width="81" height="80" as="geometry" />
        </mxCell>
        <mxCell id="DSus3vwQZFm3lOOcsBD6-3" value="$$A_R$$" style="rounded=0;whiteSpace=wrap;html=1;" vertex="1" parent="DSus3vwQZFm3lOOcsBD6-58">
          <mxGeometry width="40" height="80" as="geometry" />
        </mxCell>
        <mxCell id="DSus3vwQZFm3lOOcsBD6-20" value="&lt;font style=&quot;font-size: 23px;&quot;&gt;$$ \Bigg \}$$&lt;/font&gt;" style="text;html=1;strokeColor=none;fillColor=none;align=center;verticalAlign=middle;whiteSpace=wrap;rounded=0;fontSize=11;fontFamily=Helvetica;fontColor=default;" vertex="1" parent="DSus3vwQZFm3lOOcsBD6-58">
          <mxGeometry x="21" y="24" width="60" height="30" as="geometry" />
        </mxCell>
        <mxCell id="DSus3vwQZFm3lOOcsBD6-15" style="edgeStyle=none;shape=connector;rounded=0;orthogonalLoop=1;jettySize=auto;html=1;exitX=1;exitY=1;exitDx=0;exitDy=0;entryX=0.5;entryY=0;entryDx=0;entryDy=0;labelBackgroundColor=default;strokeColor=default;align=center;verticalAlign=middle;fontFamily=Helvetica;fontSize=11;fontColor=default;endArrow=none;endFill=0;" edge="1" parent="DSus3vwQZFm3lOOcsBD6-126" source="DSus3vwQZFm3lOOcsBD6-1" target="DSus3vwQZFm3lOOcsBD6-3">
          <mxGeometry relative="1" as="geometry" />
        </mxCell>
        <mxCell id="DSus3vwQZFm3lOOcsBD6-78" value="&lt;span style=&quot;font-size: 19px;&quot;&gt;&lt;font face=&quot;Times New Roman&quot;&gt;(a) LL&lt;/font&gt;&lt;/span&gt;" style="text;html=1;strokeColor=none;fillColor=none;align=center;verticalAlign=middle;whiteSpace=wrap;rounded=0;fontSize=11;fontFamily=Helvetica;fontColor=default;" vertex="1" parent="DSus3vwQZFm3lOOcsBD6-126">
          <mxGeometry x="175" y="270" width="60" height="30" as="geometry" />
        </mxCell>
        <mxCell id="DSus3vwQZFm3lOOcsBD6-191" value="" style="group" vertex="1" connectable="0" parent="1">
          <mxGeometry x="353" y="79" width="353" height="300" as="geometry" />
        </mxCell>
        <mxCell id="DSus3vwQZFm3lOOcsBD6-154" style="edgeStyle=none;shape=connector;rounded=0;orthogonalLoop=1;jettySize=auto;html=1;exitX=0;exitY=1;exitDx=0;exitDy=0;entryX=0.5;entryY=0;entryDx=0;entryDy=0;labelBackgroundColor=default;strokeColor=default;align=center;verticalAlign=middle;fontFamily=Helvetica;fontSize=11;fontColor=default;endArrow=none;endFill=0;" edge="1" parent="DSus3vwQZFm3lOOcsBD6-191" source="DSus3vwQZFm3lOOcsBD6-151">
          <mxGeometry relative="1" as="geometry">
            <mxPoint x="86.99999999999989" y="70" as="targetPoint" />
          </mxGeometry>
        </mxCell>
        <mxCell id="DSus3vwQZFm3lOOcsBD6-151" value="A" style="ellipse;whiteSpace=wrap;html=1;fontFamily=Times New Roman;fontSize=19;fontColor=default;" vertex="1" parent="DSus3vwQZFm3lOOcsBD6-191">
          <mxGeometry x="127" width="40" height="40" as="geometry" />
        </mxCell>
        <mxCell id="DSus3vwQZFm3lOOcsBD6-153" value="&lt;font style=&quot;font-size: 19px;&quot; face=&quot;Times New Roman&quot;&gt;B&lt;/font&gt;" style="ellipse;whiteSpace=wrap;html=1;aspect=fixed;fontFamily=Helvetica;fontSize=11;fontColor=default;" vertex="1" parent="DSus3vwQZFm3lOOcsBD6-191">
          <mxGeometry x="197" y="70" width="40" height="40" as="geometry" />
        </mxCell>
        <mxCell id="DSus3vwQZFm3lOOcsBD6-155" style="edgeStyle=none;shape=connector;rounded=0;orthogonalLoop=1;jettySize=auto;html=1;exitX=1;exitY=1;exitDx=0;exitDy=0;labelBackgroundColor=default;strokeColor=default;align=center;verticalAlign=middle;fontFamily=Helvetica;fontSize=11;fontColor=default;endArrow=none;endFill=0;" edge="1" parent="DSus3vwQZFm3lOOcsBD6-191" source="DSus3vwQZFm3lOOcsBD6-151" target="DSus3vwQZFm3lOOcsBD6-153">
          <mxGeometry relative="1" as="geometry" />
        </mxCell>
        <mxCell id="DSus3vwQZFm3lOOcsBD6-171" value="" style="group;fontFamily=Helvetica;fontSize=11;fontColor=default;" vertex="1" connectable="0" parent="DSus3vwQZFm3lOOcsBD6-191">
          <mxGeometry y="70" width="105" height="120" as="geometry" />
        </mxCell>
        <mxCell id="DSus3vwQZFm3lOOcsBD6-172" value="&lt;font style=&quot;font-size: 19px;&quot; face=&quot;Times New Roman&quot;&gt;h-1&lt;/font&gt;" style="text;html=1;strokeColor=none;fillColor=none;align=center;verticalAlign=middle;whiteSpace=wrap;rounded=0;fontSize=11;fontFamily=Helvetica;fontColor=default;" vertex="1" parent="DSus3vwQZFm3lOOcsBD6-171">
          <mxGeometry y="25" width="60" height="30" as="geometry" />
        </mxCell>
        <mxCell id="DSus3vwQZFm3lOOcsBD6-173" value="&lt;font style=&quot;font-size: 23px;&quot;&gt;$$ \Bigg \{$$&lt;/font&gt;" style="text;html=1;strokeColor=none;fillColor=none;align=center;verticalAlign=middle;whiteSpace=wrap;rounded=0;fontSize=11;fontFamily=Helvetica;fontColor=default;" vertex="1" parent="DSus3vwQZFm3lOOcsBD6-171">
          <mxGeometry x="25" y="25" width="60" height="30" as="geometry" />
        </mxCell>
        <mxCell id="DSus3vwQZFm3lOOcsBD6-174" value="" style="group;fontFamily=Helvetica;fontSize=11;fontColor=default;" vertex="1" connectable="0" parent="DSus3vwQZFm3lOOcsBD6-171">
          <mxGeometry x="66" width="40" height="120" as="geometry" />
        </mxCell>
        <mxCell id="DSus3vwQZFm3lOOcsBD6-175" value="&lt;font style=&quot;font-size: 12px;&quot;&gt;$$A_L$$&lt;/font&gt;" style="rounded=0;whiteSpace=wrap;html=1;direction=west;fontFamily=Helvetica;fontSize=11;fontColor=default;" vertex="1" parent="DSus3vwQZFm3lOOcsBD6-174">
          <mxGeometry width="40" height="80" as="geometry" />
        </mxCell>
        <mxCell id="DSus3vwQZFm3lOOcsBD6-176" value="" style="group" vertex="1" connectable="0" parent="DSus3vwQZFm3lOOcsBD6-191">
          <mxGeometry x="147" y="150" width="107" height="80" as="geometry" />
        </mxCell>
        <mxCell id="DSus3vwQZFm3lOOcsBD6-177" value="&lt;font style=&quot;font-size: 19px;&quot; face=&quot;Times New Roman&quot;&gt;h-1&lt;/font&gt;" style="text;html=1;strokeColor=none;fillColor=none;align=center;verticalAlign=middle;whiteSpace=wrap;rounded=0;fontSize=11;fontFamily=Helvetica;fontColor=default;" vertex="1" parent="DSus3vwQZFm3lOOcsBD6-176">
          <mxGeometry x="47" y="24" width="60" height="30" as="geometry" />
        </mxCell>
        <mxCell id="DSus3vwQZFm3lOOcsBD6-178" value="" style="group" vertex="1" connectable="0" parent="DSus3vwQZFm3lOOcsBD6-176">
          <mxGeometry width="81" height="80" as="geometry" />
        </mxCell>
        <mxCell id="DSus3vwQZFm3lOOcsBD6-179" value="$$B_L$$" style="rounded=0;whiteSpace=wrap;html=1;" vertex="1" parent="DSus3vwQZFm3lOOcsBD6-178">
          <mxGeometry width="40" height="80" as="geometry" />
        </mxCell>
        <mxCell id="DSus3vwQZFm3lOOcsBD6-180" value="&lt;font style=&quot;font-size: 23px;&quot;&gt;$$ \Bigg \}$$&lt;/font&gt;" style="text;html=1;strokeColor=none;fillColor=none;align=center;verticalAlign=middle;whiteSpace=wrap;rounded=0;fontSize=11;fontFamily=Helvetica;fontColor=default;" vertex="1" parent="DSus3vwQZFm3lOOcsBD6-178">
          <mxGeometry x="21" y="24" width="60" height="30" as="geometry" />
        </mxCell>
        <mxCell id="DSus3vwQZFm3lOOcsBD6-187" style="edgeStyle=none;shape=connector;rounded=0;orthogonalLoop=1;jettySize=auto;html=1;exitX=0;exitY=1;exitDx=0;exitDy=0;entryX=0.5;entryY=0;entryDx=0;entryDy=0;labelBackgroundColor=default;strokeColor=default;align=center;verticalAlign=middle;fontFamily=Helvetica;fontSize=11;fontColor=default;endArrow=none;endFill=0;" edge="1" parent="DSus3vwQZFm3lOOcsBD6-191" source="DSus3vwQZFm3lOOcsBD6-153" target="DSus3vwQZFm3lOOcsBD6-179">
          <mxGeometry relative="1" as="geometry" />
        </mxCell>
        <mxCell id="DSus3vwQZFm3lOOcsBD6-181" value="" style="group" vertex="1" connectable="0" parent="DSus3vwQZFm3lOOcsBD6-191">
          <mxGeometry x="247" y="150" width="107" height="80" as="geometry" />
        </mxCell>
        <mxCell id="DSus3vwQZFm3lOOcsBD6-182" value="&lt;font style=&quot;font-size: 19px;&quot; face=&quot;Times New Roman&quot;&gt;h-1&lt;/font&gt;" style="text;html=1;strokeColor=none;fillColor=none;align=center;verticalAlign=middle;whiteSpace=wrap;rounded=0;fontSize=11;fontFamily=Helvetica;fontColor=default;" vertex="1" parent="DSus3vwQZFm3lOOcsBD6-181">
          <mxGeometry x="47" y="24" width="60" height="30" as="geometry" />
        </mxCell>
        <mxCell id="DSus3vwQZFm3lOOcsBD6-183" value="" style="group" vertex="1" connectable="0" parent="DSus3vwQZFm3lOOcsBD6-181">
          <mxGeometry width="81" height="80" as="geometry" />
        </mxCell>
        <mxCell id="DSus3vwQZFm3lOOcsBD6-184" value="$$B_R$$" style="rounded=0;whiteSpace=wrap;html=1;" vertex="1" parent="DSus3vwQZFm3lOOcsBD6-183">
          <mxGeometry width="40" height="80" as="geometry" />
        </mxCell>
        <mxCell id="DSus3vwQZFm3lOOcsBD6-185" value="&lt;font style=&quot;font-size: 23px;&quot;&gt;$$ \Bigg \}$$&lt;/font&gt;" style="text;html=1;strokeColor=none;fillColor=none;align=center;verticalAlign=middle;whiteSpace=wrap;rounded=0;fontSize=11;fontFamily=Helvetica;fontColor=default;" vertex="1" parent="DSus3vwQZFm3lOOcsBD6-183">
          <mxGeometry x="21" y="24" width="60" height="30" as="geometry" />
        </mxCell>
        <mxCell id="DSus3vwQZFm3lOOcsBD6-188" style="edgeStyle=none;shape=connector;rounded=0;orthogonalLoop=1;jettySize=auto;html=1;exitX=1;exitY=1;exitDx=0;exitDy=0;entryX=0.5;entryY=0;entryDx=0;entryDy=0;labelBackgroundColor=default;strokeColor=default;align=center;verticalAlign=middle;fontFamily=Helvetica;fontSize=11;fontColor=default;endArrow=none;endFill=0;" edge="1" parent="DSus3vwQZFm3lOOcsBD6-191" source="DSus3vwQZFm3lOOcsBD6-153" target="DSus3vwQZFm3lOOcsBD6-184">
          <mxGeometry relative="1" as="geometry" />
        </mxCell>
        <mxCell id="DSus3vwQZFm3lOOcsBD6-189" value="" style="rounded=0;whiteSpace=wrap;html=1;fontFamily=Helvetica;fontSize=11;fontColor=default;fillStyle=auto;fillColor=#525252;gradientColor=none;container=0;" vertex="1" parent="DSus3vwQZFm3lOOcsBD6-191">
          <mxGeometry x="247" y="230" width="40" height="40" as="geometry" />
        </mxCell>
        <mxCell id="DSus3vwQZFm3lOOcsBD6-190" value="&lt;span style=&quot;font-size: 19px;&quot;&gt;&lt;font face=&quot;Times New Roman&quot;&gt;(b)RR&lt;/font&gt;&lt;/span&gt;" style="text;html=1;strokeColor=none;fillColor=none;align=center;verticalAlign=middle;whiteSpace=wrap;rounded=0;fontSize=11;fontFamily=Helvetica;fontColor=default;" vertex="1" parent="DSus3vwQZFm3lOOcsBD6-191">
          <mxGeometry x="116" y="270" width="62" height="30" as="geometry" />
        </mxCell>
        <mxCell id="DSus3vwQZFm3lOOcsBD6-222" value="" style="group;flipH=0;" vertex="1" connectable="0" parent="1">
          <mxGeometry x="679" y="78" width="352" height="300" as="geometry" />
        </mxCell>
        <mxCell id="DSus3vwQZFm3lOOcsBD6-223" value="A" style="ellipse;whiteSpace=wrap;html=1;fontFamily=Times New Roman;fontSize=19;" vertex="1" parent="DSus3vwQZFm3lOOcsBD6-222">
          <mxGeometry x="185" width="40" height="40" as="geometry" />
        </mxCell>
        <mxCell id="DSus3vwQZFm3lOOcsBD6-224" value="B" style="ellipse;whiteSpace=wrap;html=1;fontFamily=Times New Roman;fontSize=19;" vertex="1" parent="DSus3vwQZFm3lOOcsBD6-222">
          <mxGeometry x="115" y="70" width="40" height="40" as="geometry" />
        </mxCell>
        <mxCell id="DSus3vwQZFm3lOOcsBD6-225" style="rounded=0;orthogonalLoop=1;jettySize=auto;html=1;exitX=0;exitY=1;exitDx=0;exitDy=0;endArrow=none;endFill=0;" edge="1" parent="DSus3vwQZFm3lOOcsBD6-222" source="DSus3vwQZFm3lOOcsBD6-223" target="DSus3vwQZFm3lOOcsBD6-224">
          <mxGeometry relative="1" as="geometry" />
        </mxCell>
        <mxCell id="DSus3vwQZFm3lOOcsBD6-226" value="" style="group" vertex="1" connectable="0" parent="DSus3vwQZFm3lOOcsBD6-222">
          <mxGeometry y="150" width="105" height="120" as="geometry" />
        </mxCell>
        <mxCell id="DSus3vwQZFm3lOOcsBD6-227" value="&lt;font style=&quot;font-size: 19px;&quot; face=&quot;Times New Roman&quot;&gt;h-1&lt;/font&gt;" style="text;html=1;strokeColor=none;fillColor=none;align=center;verticalAlign=middle;whiteSpace=wrap;rounded=0;fontSize=11;fontFamily=Helvetica;fontColor=default;" vertex="1" parent="DSus3vwQZFm3lOOcsBD6-226">
          <mxGeometry y="25" width="60" height="30" as="geometry" />
        </mxCell>
        <mxCell id="DSus3vwQZFm3lOOcsBD6-228" value="&lt;font style=&quot;font-size: 23px;&quot;&gt;$$ \Bigg \{$$&lt;/font&gt;" style="text;html=1;strokeColor=none;fillColor=none;align=center;verticalAlign=middle;whiteSpace=wrap;rounded=0;fontSize=11;fontFamily=Helvetica;fontColor=default;" vertex="1" parent="DSus3vwQZFm3lOOcsBD6-226">
          <mxGeometry x="24" y="25" width="60" height="30" as="geometry" />
        </mxCell>
        <mxCell id="DSus3vwQZFm3lOOcsBD6-229" value="" style="group" vertex="1" connectable="0" parent="DSus3vwQZFm3lOOcsBD6-226">
          <mxGeometry x="65" width="40" height="120" as="geometry" />
        </mxCell>
        <mxCell id="DSus3vwQZFm3lOOcsBD6-230" value="&lt;font style=&quot;font-size: 12px;&quot;&gt;$$B_L$$&lt;/font&gt;" style="rounded=0;whiteSpace=wrap;html=1;direction=west;" vertex="1" parent="DSus3vwQZFm3lOOcsBD6-229">
          <mxGeometry width="40" height="80" as="geometry" />
        </mxCell>
        <mxCell id="DSus3vwQZFm3lOOcsBD6-232" style="edgeStyle=none;shape=connector;rounded=0;orthogonalLoop=1;jettySize=auto;html=1;exitX=0;exitY=1;exitDx=0;exitDy=0;entryX=0.5;entryY=1;entryDx=0;entryDy=0;labelBackgroundColor=default;strokeColor=default;align=center;verticalAlign=middle;fontFamily=Helvetica;fontSize=11;fontColor=default;endArrow=none;endFill=0;" edge="1" parent="DSus3vwQZFm3lOOcsBD6-222" source="DSus3vwQZFm3lOOcsBD6-224" target="DSus3vwQZFm3lOOcsBD6-230">
          <mxGeometry relative="1" as="geometry" />
        </mxCell>
        <mxCell id="DSus3vwQZFm3lOOcsBD6-233" value="" style="group" vertex="1" connectable="0" parent="DSus3vwQZFm3lOOcsBD6-222">
          <mxGeometry x="98" y="150" width="105" height="120" as="geometry" />
        </mxCell>
        <mxCell id="DSus3vwQZFm3lOOcsBD6-234" value="&lt;font style=&quot;font-size: 19px;&quot; face=&quot;Times New Roman&quot;&gt;h-1&lt;/font&gt;" style="text;html=1;strokeColor=none;fillColor=none;align=center;verticalAlign=middle;whiteSpace=wrap;rounded=0;fontSize=11;fontFamily=Helvetica;fontColor=default;" vertex="1" parent="DSus3vwQZFm3lOOcsBD6-233">
          <mxGeometry y="25" width="60" height="30" as="geometry" />
        </mxCell>
        <mxCell id="DSus3vwQZFm3lOOcsBD6-235" value="&lt;font style=&quot;font-size: 23px;&quot;&gt;$$ \Bigg \{$$&lt;/font&gt;" style="text;html=1;strokeColor=none;fillColor=none;align=center;verticalAlign=middle;whiteSpace=wrap;rounded=0;fontSize=11;fontFamily=Helvetica;fontColor=default;" vertex="1" parent="DSus3vwQZFm3lOOcsBD6-233">
          <mxGeometry x="24" y="25" width="60" height="30" as="geometry" />
        </mxCell>
        <mxCell id="DSus3vwQZFm3lOOcsBD6-236" value="" style="group" vertex="1" connectable="0" parent="DSus3vwQZFm3lOOcsBD6-233">
          <mxGeometry x="65" width="40" height="120" as="geometry" />
        </mxCell>
        <mxCell id="DSus3vwQZFm3lOOcsBD6-237" value="&lt;font style=&quot;font-size: 12px;&quot;&gt;$$B_R$$&lt;/font&gt;" style="rounded=0;whiteSpace=wrap;html=1;direction=west;" vertex="1" parent="DSus3vwQZFm3lOOcsBD6-236">
          <mxGeometry width="40" height="80" as="geometry" />
        </mxCell>
        <mxCell id="DSus3vwQZFm3lOOcsBD6-270" value="" style="rounded=0;whiteSpace=wrap;html=1;fontFamily=Helvetica;fontSize=11;fontColor=default;fillStyle=auto;fillColor=#525252;gradientColor=none;container=0;" vertex="1" parent="DSus3vwQZFm3lOOcsBD6-236">
          <mxGeometry y="80" width="40" height="40" as="geometry" />
        </mxCell>
        <mxCell id="DSus3vwQZFm3lOOcsBD6-238" style="edgeStyle=none;shape=connector;rounded=0;orthogonalLoop=1;jettySize=auto;html=1;exitX=1;exitY=1;exitDx=0;exitDy=0;entryX=0.5;entryY=1;entryDx=0;entryDy=0;labelBackgroundColor=default;strokeColor=default;align=center;verticalAlign=middle;fontFamily=Helvetica;fontSize=11;fontColor=default;endArrow=none;endFill=0;" edge="1" parent="DSus3vwQZFm3lOOcsBD6-222" source="DSus3vwQZFm3lOOcsBD6-224" target="DSus3vwQZFm3lOOcsBD6-237">
          <mxGeometry relative="1" as="geometry" />
        </mxCell>
        <mxCell id="DSus3vwQZFm3lOOcsBD6-239" value="" style="group" vertex="1" connectable="0" parent="DSus3vwQZFm3lOOcsBD6-222">
          <mxGeometry x="245" y="70" width="107" height="80" as="geometry" />
        </mxCell>
        <mxCell id="DSus3vwQZFm3lOOcsBD6-240" value="&lt;font style=&quot;font-size: 19px;&quot; face=&quot;Times New Roman&quot;&gt;h-1&lt;/font&gt;" style="text;html=1;strokeColor=none;fillColor=none;align=center;verticalAlign=middle;whiteSpace=wrap;rounded=0;fontSize=11;fontFamily=Helvetica;fontColor=default;" vertex="1" parent="DSus3vwQZFm3lOOcsBD6-239">
          <mxGeometry x="47" y="24" width="60" height="30" as="geometry" />
        </mxCell>
        <mxCell id="DSus3vwQZFm3lOOcsBD6-241" value="" style="group" vertex="1" connectable="0" parent="DSus3vwQZFm3lOOcsBD6-239">
          <mxGeometry width="81" height="80" as="geometry" />
        </mxCell>
        <mxCell id="DSus3vwQZFm3lOOcsBD6-242" value="$$A_R$$" style="rounded=0;whiteSpace=wrap;html=1;" vertex="1" parent="DSus3vwQZFm3lOOcsBD6-241">
          <mxGeometry width="40" height="80" as="geometry" />
        </mxCell>
        <mxCell id="DSus3vwQZFm3lOOcsBD6-243" value="&lt;font style=&quot;font-size: 23px;&quot;&gt;$$ \Bigg \}$$&lt;/font&gt;" style="text;html=1;strokeColor=none;fillColor=none;align=center;verticalAlign=middle;whiteSpace=wrap;rounded=0;fontSize=11;fontFamily=Helvetica;fontColor=default;" vertex="1" parent="DSus3vwQZFm3lOOcsBD6-241">
          <mxGeometry x="21" y="24" width="60" height="30" as="geometry" />
        </mxCell>
        <mxCell id="DSus3vwQZFm3lOOcsBD6-244" style="edgeStyle=none;shape=connector;rounded=0;orthogonalLoop=1;jettySize=auto;html=1;exitX=1;exitY=1;exitDx=0;exitDy=0;entryX=0.5;entryY=0;entryDx=0;entryDy=0;labelBackgroundColor=default;strokeColor=default;align=center;verticalAlign=middle;fontFamily=Helvetica;fontSize=11;fontColor=default;endArrow=none;endFill=0;" edge="1" parent="DSus3vwQZFm3lOOcsBD6-222" source="DSus3vwQZFm3lOOcsBD6-223" target="DSus3vwQZFm3lOOcsBD6-242">
          <mxGeometry relative="1" as="geometry" />
        </mxCell>
        <mxCell id="DSus3vwQZFm3lOOcsBD6-245" value="&lt;span style=&quot;font-size: 19px;&quot;&gt;&lt;font face=&quot;Times New Roman&quot;&gt;(c) LR&lt;/font&gt;&lt;/span&gt;" style="text;html=1;strokeColor=none;fillColor=none;align=center;verticalAlign=middle;whiteSpace=wrap;rounded=0;fontSize=11;fontFamily=Helvetica;fontColor=default;" vertex="1" parent="DSus3vwQZFm3lOOcsBD6-222">
          <mxGeometry x="175" y="270" width="60" height="30" as="geometry" />
        </mxCell>
        <mxCell id="DSus3vwQZFm3lOOcsBD6-246" value="" style="group" vertex="1" connectable="0" parent="1">
          <mxGeometry x="1003" y="77" width="353" height="300" as="geometry" />
        </mxCell>
        <mxCell id="DSus3vwQZFm3lOOcsBD6-247" style="edgeStyle=none;shape=connector;rounded=0;orthogonalLoop=1;jettySize=auto;html=1;exitX=0;exitY=1;exitDx=0;exitDy=0;entryX=0.5;entryY=0;entryDx=0;entryDy=0;labelBackgroundColor=default;strokeColor=default;align=center;verticalAlign=middle;fontFamily=Helvetica;fontSize=11;fontColor=default;endArrow=none;endFill=0;" edge="1" parent="DSus3vwQZFm3lOOcsBD6-246" source="DSus3vwQZFm3lOOcsBD6-248">
          <mxGeometry relative="1" as="geometry">
            <mxPoint x="86.99999999999989" y="70" as="targetPoint" />
          </mxGeometry>
        </mxCell>
        <mxCell id="DSus3vwQZFm3lOOcsBD6-248" value="A" style="ellipse;whiteSpace=wrap;html=1;fontFamily=Times New Roman;fontSize=19;fontColor=default;" vertex="1" parent="DSus3vwQZFm3lOOcsBD6-246">
          <mxGeometry x="127" width="40" height="40" as="geometry" />
        </mxCell>
        <mxCell id="DSus3vwQZFm3lOOcsBD6-249" value="&lt;font style=&quot;font-size: 19px;&quot; face=&quot;Times New Roman&quot;&gt;B&lt;/font&gt;" style="ellipse;whiteSpace=wrap;html=1;aspect=fixed;fontFamily=Helvetica;fontSize=11;fontColor=default;" vertex="1" parent="DSus3vwQZFm3lOOcsBD6-246">
          <mxGeometry x="197" y="70" width="40" height="40" as="geometry" />
        </mxCell>
        <mxCell id="DSus3vwQZFm3lOOcsBD6-250" style="edgeStyle=none;shape=connector;rounded=0;orthogonalLoop=1;jettySize=auto;html=1;exitX=1;exitY=1;exitDx=0;exitDy=0;labelBackgroundColor=default;strokeColor=default;align=center;verticalAlign=middle;fontFamily=Helvetica;fontSize=11;fontColor=default;endArrow=none;endFill=0;" edge="1" parent="DSus3vwQZFm3lOOcsBD6-246" source="DSus3vwQZFm3lOOcsBD6-248" target="DSus3vwQZFm3lOOcsBD6-249">
          <mxGeometry relative="1" as="geometry" />
        </mxCell>
        <mxCell id="DSus3vwQZFm3lOOcsBD6-251" value="" style="group;fontFamily=Helvetica;fontSize=11;fontColor=default;" vertex="1" connectable="0" parent="DSus3vwQZFm3lOOcsBD6-246">
          <mxGeometry y="70" width="105" height="120" as="geometry" />
        </mxCell>
        <mxCell id="DSus3vwQZFm3lOOcsBD6-252" value="&lt;font style=&quot;font-size: 19px;&quot; face=&quot;Times New Roman&quot;&gt;h-1&lt;/font&gt;" style="text;html=1;strokeColor=none;fillColor=none;align=center;verticalAlign=middle;whiteSpace=wrap;rounded=0;fontSize=11;fontFamily=Helvetica;fontColor=default;" vertex="1" parent="DSus3vwQZFm3lOOcsBD6-251">
          <mxGeometry y="25" width="60" height="30" as="geometry" />
        </mxCell>
        <mxCell id="DSus3vwQZFm3lOOcsBD6-253" value="&lt;font style=&quot;font-size: 23px;&quot;&gt;$$ \Bigg \{$$&lt;/font&gt;" style="text;html=1;strokeColor=none;fillColor=none;align=center;verticalAlign=middle;whiteSpace=wrap;rounded=0;fontSize=11;fontFamily=Helvetica;fontColor=default;" vertex="1" parent="DSus3vwQZFm3lOOcsBD6-251">
          <mxGeometry x="25" y="25" width="60" height="30" as="geometry" />
        </mxCell>
        <mxCell id="DSus3vwQZFm3lOOcsBD6-254" value="" style="group;fontFamily=Helvetica;fontSize=11;fontColor=default;" vertex="1" connectable="0" parent="DSus3vwQZFm3lOOcsBD6-251">
          <mxGeometry x="66" width="40" height="120" as="geometry" />
        </mxCell>
        <mxCell id="DSus3vwQZFm3lOOcsBD6-255" value="&lt;font style=&quot;font-size: 12px;&quot;&gt;$$A_L$$&lt;/font&gt;" style="rounded=0;whiteSpace=wrap;html=1;direction=west;fontFamily=Helvetica;fontSize=11;fontColor=default;" vertex="1" parent="DSus3vwQZFm3lOOcsBD6-254">
          <mxGeometry width="40" height="80" as="geometry" />
        </mxCell>
        <mxCell id="DSus3vwQZFm3lOOcsBD6-256" value="" style="group" vertex="1" connectable="0" parent="DSus3vwQZFm3lOOcsBD6-246">
          <mxGeometry x="147" y="150" width="107" height="80" as="geometry" />
        </mxCell>
        <mxCell id="DSus3vwQZFm3lOOcsBD6-257" value="&lt;font style=&quot;font-size: 19px;&quot; face=&quot;Times New Roman&quot;&gt;h-1&lt;/font&gt;" style="text;html=1;strokeColor=none;fillColor=none;align=center;verticalAlign=middle;whiteSpace=wrap;rounded=0;fontSize=11;fontFamily=Helvetica;fontColor=default;" vertex="1" parent="DSus3vwQZFm3lOOcsBD6-256">
          <mxGeometry x="47" y="24" width="60" height="30" as="geometry" />
        </mxCell>
        <mxCell id="DSus3vwQZFm3lOOcsBD6-258" value="" style="group" vertex="1" connectable="0" parent="DSus3vwQZFm3lOOcsBD6-256">
          <mxGeometry width="81" height="80" as="geometry" />
        </mxCell>
        <mxCell id="DSus3vwQZFm3lOOcsBD6-259" value="$$B_L$$" style="rounded=0;whiteSpace=wrap;html=1;" vertex="1" parent="DSus3vwQZFm3lOOcsBD6-258">
          <mxGeometry width="40" height="80" as="geometry" />
        </mxCell>
        <mxCell id="DSus3vwQZFm3lOOcsBD6-260" value="&lt;font style=&quot;font-size: 23px;&quot;&gt;$$ \Bigg \}$$&lt;/font&gt;" style="text;html=1;strokeColor=none;fillColor=none;align=center;verticalAlign=middle;whiteSpace=wrap;rounded=0;fontSize=11;fontFamily=Helvetica;fontColor=default;" vertex="1" parent="DSus3vwQZFm3lOOcsBD6-258">
          <mxGeometry x="21" y="24" width="60" height="30" as="geometry" />
        </mxCell>
        <mxCell id="DSus3vwQZFm3lOOcsBD6-261" style="edgeStyle=none;shape=connector;rounded=0;orthogonalLoop=1;jettySize=auto;html=1;exitX=0;exitY=1;exitDx=0;exitDy=0;entryX=0.5;entryY=0;entryDx=0;entryDy=0;labelBackgroundColor=default;strokeColor=default;align=center;verticalAlign=middle;fontFamily=Helvetica;fontSize=11;fontColor=default;endArrow=none;endFill=0;" edge="1" parent="DSus3vwQZFm3lOOcsBD6-246" source="DSus3vwQZFm3lOOcsBD6-249" target="DSus3vwQZFm3lOOcsBD6-259">
          <mxGeometry relative="1" as="geometry" />
        </mxCell>
        <mxCell id="DSus3vwQZFm3lOOcsBD6-262" value="" style="group" vertex="1" connectable="0" parent="DSus3vwQZFm3lOOcsBD6-246">
          <mxGeometry x="247" y="150" width="107" height="80" as="geometry" />
        </mxCell>
        <mxCell id="DSus3vwQZFm3lOOcsBD6-263" value="&lt;font style=&quot;font-size: 19px;&quot; face=&quot;Times New Roman&quot;&gt;h-1&lt;/font&gt;" style="text;html=1;strokeColor=none;fillColor=none;align=center;verticalAlign=middle;whiteSpace=wrap;rounded=0;fontSize=11;fontFamily=Helvetica;fontColor=default;" vertex="1" parent="DSus3vwQZFm3lOOcsBD6-262">
          <mxGeometry x="47" y="24" width="60" height="30" as="geometry" />
        </mxCell>
        <mxCell id="DSus3vwQZFm3lOOcsBD6-264" value="" style="group" vertex="1" connectable="0" parent="DSus3vwQZFm3lOOcsBD6-262">
          <mxGeometry width="81" height="80" as="geometry" />
        </mxCell>
        <mxCell id="DSus3vwQZFm3lOOcsBD6-265" value="$$B_R$$" style="rounded=0;whiteSpace=wrap;html=1;" vertex="1" parent="DSus3vwQZFm3lOOcsBD6-264">
          <mxGeometry width="40" height="80" as="geometry" />
        </mxCell>
        <mxCell id="DSus3vwQZFm3lOOcsBD6-266" value="&lt;font style=&quot;font-size: 23px;&quot;&gt;$$ \Bigg \}$$&lt;/font&gt;" style="text;html=1;strokeColor=none;fillColor=none;align=center;verticalAlign=middle;whiteSpace=wrap;rounded=0;fontSize=11;fontFamily=Helvetica;fontColor=default;" vertex="1" parent="DSus3vwQZFm3lOOcsBD6-264">
          <mxGeometry x="21" y="24" width="60" height="30" as="geometry" />
        </mxCell>
        <mxCell id="DSus3vwQZFm3lOOcsBD6-267" style="edgeStyle=none;shape=connector;rounded=0;orthogonalLoop=1;jettySize=auto;html=1;exitX=1;exitY=1;exitDx=0;exitDy=0;entryX=0.5;entryY=0;entryDx=0;entryDy=0;labelBackgroundColor=default;strokeColor=default;align=center;verticalAlign=middle;fontFamily=Helvetica;fontSize=11;fontColor=default;endArrow=none;endFill=0;" edge="1" parent="DSus3vwQZFm3lOOcsBD6-246" source="DSus3vwQZFm3lOOcsBD6-249" target="DSus3vwQZFm3lOOcsBD6-265">
          <mxGeometry relative="1" as="geometry" />
        </mxCell>
        <mxCell id="DSus3vwQZFm3lOOcsBD6-268" value="" style="rounded=0;whiteSpace=wrap;html=1;fontFamily=Helvetica;fontSize=11;fontColor=default;fillStyle=auto;fillColor=#525252;gradientColor=none;container=0;" vertex="1" parent="DSus3vwQZFm3lOOcsBD6-246">
          <mxGeometry x="147" y="230" width="40" height="40" as="geometry" />
        </mxCell>
        <mxCell id="DSus3vwQZFm3lOOcsBD6-269" value="&lt;span style=&quot;font-size: 19px;&quot;&gt;&lt;font face=&quot;Times New Roman&quot;&gt;(d)RL&lt;/font&gt;&lt;/span&gt;" style="text;html=1;strokeColor=none;fillColor=none;align=center;verticalAlign=middle;whiteSpace=wrap;rounded=0;fontSize=11;fontFamily=Helvetica;fontColor=default;" vertex="1" parent="DSus3vwQZFm3lOOcsBD6-246">
          <mxGeometry x="117" y="270" width="60" height="30" as="geometry" />
        </mxCell>
      </root>
    </mxGraphModel>
  </diagram>
</mxfile>
